<svg width="86" height="16" viewBox="0 0 86 16" fill="none" xmlns="http://www.w3.org/2000/svg">
<path d="M0.8 15V0.3H3.54L4.72 7.92L4.82 8.7H4.86L4.96 7.92L6.14 0.3H8.88V15H6.88V5.14H6.76L6.68 5.76L5.4 15H4.28L3 5.76L2.92 5.14H2.8V15H0.8ZM10.0375 15L12.2575 0.3H14.8975L17.1175 15H15.0175L14.6175 12H12.5375L12.1375 15H10.0375ZM12.8375 9.72H14.3175L13.6975 4.78L13.6375 4H13.5175L13.4575 4.78L12.8375 9.72ZM20.6656 15.16C20.0723 15.16 19.579 15.0633 19.1856 14.87C18.7923 14.67 18.4823 14.3833 18.2556 14.01C18.029 13.6367 17.8656 13.1867 17.7656 12.66C17.6723 12.1333 17.6256 11.54 17.6256 10.88L19.7456 10.68C19.7456 11 19.7556 11.31 19.7756 11.61C19.8023 11.9033 19.8456 12.17 19.9056 12.41C19.9723 12.6433 20.0656 12.83 20.1856 12.97C20.3123 13.11 20.4723 13.18 20.6656 13.18C20.9856 13.18 21.2123 13.0333 21.3456 12.74C21.479 12.44 21.5456 12.08 21.5456 11.66C21.5456 11.24 21.4356 10.8033 21.2156 10.35C20.9956 9.89667 20.7323 9.46667 20.4256 9.06C19.9056 8.36667 19.449 7.72333 19.0556 7.13C18.669 6.53667 18.3656 5.95333 18.1456 5.38C17.9323 4.80667 17.8256 4.20667 17.8256 3.58C17.8256 3.08667 17.889 2.63333 18.0156 2.22C18.1423 1.8 18.3256 1.43667 18.5656 1.13C18.8123 0.816666 19.109 0.573333 19.4556 0.4C19.8023 0.226666 20.199 0.139999 20.6456 0.139999C21.199 0.139999 21.6656 0.233333 22.0456 0.419999C22.4323 0.606666 22.7423 0.873333 22.9756 1.22C23.2156 1.56667 23.389 1.98 23.4956 2.46C23.609 2.93333 23.6656 3.46 23.6656 4.04L21.5456 4.24C21.5456 3.99333 21.5323 3.74667 21.5056 3.5C21.4856 3.24667 21.4456 3.01667 21.3856 2.81C21.3256 2.60333 21.239 2.43667 21.1256 2.31C21.0123 2.18333 20.8656 2.12 20.6856 2.12C20.4056 2.12 20.2123 2.24 20.1056 2.48C19.999 2.71333 19.9456 3.04667 19.9456 3.48C19.9456 4.04 20.0956 4.58 20.3956 5.1C20.6956 5.62 21.099 6.22667 21.6056 6.92C22.2123 7.74 22.7056 8.49333 23.0856 9.18C23.4723 9.86667 23.6656 10.6267 23.6656 11.46C23.6656 11.9867 23.609 12.4767 23.4956 12.93C23.3823 13.3767 23.2023 13.7667 22.9556 14.1C22.7156 14.4333 22.4056 14.6933 22.0256 14.88C21.6523 15.0667 21.199 15.16 20.6656 15.16ZM26.2634 15V2.52H24.2234V0.3H30.4634V2.52H28.4234V15H26.2634ZM31.4641 15V0.3H36.4041V2.52H33.6241V6.48H35.6241V8.64H33.6241V12.78H36.4041V15H31.4641ZM38.007 15V0.3H40.167C41.4604 0.3 42.4137 0.659999 43.027 1.38C43.6404 2.09333 43.947 3.14667 43.947 4.54C43.947 5.36667 43.8004 6.08333 43.507 6.69C43.2204 7.29 42.8704 7.73 42.457 8.01L43.927 15H41.767L40.547 8.8H40.167V15H38.007ZM40.167 6.8C40.567 6.8 40.8837 6.71333 41.117 6.54C41.3504 6.36 41.517 6.10667 41.617 5.78C41.717 5.45333 41.767 5.06667 41.767 4.62C41.767 3.92 41.6504 3.38333 41.417 3.01C41.1904 2.63 40.7737 2.44 40.167 2.44V6.8Z" fill="#9956F6"/>
<path d="M50.6814 15.16C50.0881 15.16 49.6047 15.02 49.2314 14.74C48.8581 14.46 48.5814 14.08 48.4014 13.6C48.2281 13.12 48.1414 12.58 48.1414 11.98V3.32C48.1414 2.72667 48.2581 2.19 48.4914 1.71C48.7247 1.23 49.0581 0.85 49.4914 0.569999C49.9247 0.283333 50.4347 0.139999 51.0214 0.139999C51.4681 0.139999 51.8681 0.223333 52.2214 0.389999C52.5814 0.549999 52.8847 0.776666 53.1314 1.07C53.3847 1.36333 53.5747 1.70333 53.7014 2.09C53.8347 2.47 53.9014 2.88 53.9014 3.32V5.58H51.7414V3.32C51.7414 3.02667 51.6881 2.77333 51.5814 2.56C51.4747 2.34667 51.2881 2.24 51.0214 2.24C50.7614 2.24 50.5747 2.35333 50.4614 2.58C50.3547 2.8 50.3014 3.04667 50.3014 3.32V12.16C50.3014 12.4467 50.3581 12.7 50.4714 12.92C50.5847 13.1333 50.7681 13.24 51.0214 13.24C51.2881 13.24 51.4747 13.1333 51.5814 12.92C51.6881 12.7 51.7414 12.4467 51.7414 12.16V9.7H50.8814V7.68H53.9014V15H52.6214L52.3614 14.2C52.1747 14.5 51.9347 14.7367 51.6414 14.91C51.3547 15.0767 51.0347 15.16 50.6814 15.16ZM55.057 15L57.277 0.3H59.917L62.137 15H60.037L59.637 12H57.557L57.157 15H55.057ZM57.857 9.72H59.337L58.717 4.78L58.657 4H58.537L58.477 4.78L57.857 9.72ZM63.2805 15V0.3H66.0205L67.2005 7.92L67.3005 8.7H67.3405L67.4405 7.92L68.6205 0.3H71.3605V15H69.3605V5.14H69.2405L69.1605 5.76L67.8805 15H66.7605L65.4805 5.76L65.4005 5.14H65.2805V15H63.2805ZM72.968 15V0.3H77.908V2.52H75.128V6.48H77.128V8.64H75.128V12.78H77.908V15H72.968ZM82.1109 15.16C81.5176 15.16 81.0243 15.0633 80.6309 14.87C80.2376 14.67 79.9276 14.3833 79.7009 14.01C79.4743 13.6367 79.3109 13.1867 79.2109 12.66C79.1176 12.1333 79.0709 11.54 79.0709 10.88L81.1909 10.68C81.1909 11 81.2009 11.31 81.2209 11.61C81.2476 11.9033 81.2909 12.17 81.3509 12.41C81.4176 12.6433 81.5109 12.83 81.6309 12.97C81.7576 13.11 81.9176 13.18 82.1109 13.18C82.4309 13.18 82.6576 13.0333 82.7909 12.74C82.9243 12.44 82.9909 12.08 82.9909 11.66C82.9909 11.24 82.8809 10.8033 82.6609 10.35C82.4409 9.89667 82.1776 9.46667 81.8709 9.06C81.3509 8.36667 80.8943 7.72333 80.5009 7.13C80.1143 6.53667 79.8109 5.95333 79.5909 5.38C79.3776 4.80667 79.2709 4.20667 79.2709 3.58C79.2709 3.08667 79.3343 2.63333 79.4609 2.22C79.5876 1.8 79.7709 1.43667 80.0109 1.13C80.2576 0.816666 80.5543 0.573333 80.9009 0.4C81.2476 0.226666 81.6443 0.139999 82.0909 0.139999C82.6443 0.139999 83.1109 0.233333 83.4909 0.419999C83.8776 0.606666 84.1876 0.873333 84.4209 1.22C84.6609 1.56667 84.8343 1.98 84.9409 2.46C85.0543 2.93333 85.1109 3.46 85.1109 4.04L82.9909 4.24C82.9909 3.99333 82.9776 3.74667 82.9509 3.5C82.9309 3.24667 82.8909 3.01667 82.8309 2.81C82.7709 2.60333 82.6843 2.43667 82.5709 2.31C82.4576 2.18333 82.3109 2.12 82.1309 2.12C81.8509 2.12 81.6576 2.24 81.5509 2.48C81.4443 2.71333 81.3909 3.04667 81.3909 3.48C81.3909 4.04 81.5409 4.58 81.8409 5.1C82.1409 5.62 82.5443 6.22667 83.0509 6.92C83.6576 7.74 84.1509 8.49333 84.5309 9.18C84.9176 9.86667 85.1109 10.6267 85.1109 11.46C85.1109 11.9867 85.0543 12.4767 84.9409 12.93C84.8276 13.3767 84.6476 13.7667 84.4009 14.1C84.1609 14.4333 83.8509 14.6933 83.4709 14.88C83.0976 15.0667 82.6443 15.16 82.1109 15.16Z" fill="black"/>
</svg>
